M48
; DRILL file {KiCad 8.0.8} date 2025-11-20T00:18:14-0800
; FORMAT={-:-/ absolute / inch / decimal}
; #@! TF.CreationDate,2025-11-20T00:18:14-08:00
; #@! TF.GenerationSoftware,Kicad,Pcbnew,8.0.8
; #@! TF.FileFunction,Plated,1,2,PTH
FMAT,2
INCH
; #@! TA.AperFunction,Plated,PTH,ViaDrill
T1C0.0236
; #@! TA.AperFunction,Plated,PTH,ComponentDrill
T2C0.0394
%
G90
G05
T1
X4.1441Y-4.6063
X4.5669Y-4.4882
X4.6457Y-4.7638
X4.7441Y-3.937
X4.7494Y-4.5276
X4.8006Y-4.5276
X4.8031Y-4.7638
X4.8518Y-4.5276
X4.903Y-4.5276
X4.9541Y-4.5276
X4.9606Y-3.5433
X4.9606Y-4.7638
X5.0053Y-4.5276
X5.0591Y-4.5276
X5.1129Y-4.5229
X5.1441Y-4.7701
X5.1567Y-4.4941
X5.2165Y-3.9783
X5.315Y-4.8228
X5.374Y-4.0551
X5.4038Y-4.4196
X5.4921Y-4.7638
X5.5118Y-3.7795
X5.5315Y-3.9764
X5.5709Y-3.8583
X5.5906Y-3.5827
X5.5906Y-4.2913
X5.6102Y-4.5866
X5.6299Y-3.8602
X5.6496Y-3.9961
X5.689Y-3.6614
X5.689Y-3.7618
X5.7087Y-3.9764
X5.7087Y-4.1535
X5.7874Y-3.6614
X5.7874Y-3.7618
X5.7874Y-3.8602
X5.8858Y-3.9764
X6.188Y-4.6063
X6.2008Y-2.5984
X6.2402Y-4.0551
X6.3976Y-4.0551
X6.437Y-2.5394
X6.4764Y-4.8031
X6.4961Y-3.8386
X6.5157Y-4.4882
X6.6142Y-2.5984
X6.6732Y-4.5276
X6.6929Y-3.9567
X6.6929Y-4.8031
X6.7323Y-4.5276
X6.7913Y-4.5276
X6.8504Y-4.5276
X6.9055Y-4.5276
X6.9291Y-3.8386
X6.9291Y-4.8228
X6.9567Y-4.5276
X7.0079Y-4.5276
X7.0472Y-3.8583
X7.0669Y-4.5079
X7.102Y-4.4409
X7.1457Y-3.9764
X7.1654Y-4.8031
X7.1933Y-4.0177
X7.2624Y-3.876
X7.2638Y-4.4508
X7.3567Y-4.7583
X7.5098Y-4.6949
X7.5197Y-4.4882
T2
X4.1441Y-5.0787
X4.2441Y-5.0787
X4.3441Y-5.0787
X4.4441Y-5.0787
X4.5441Y-5.0787
X4.6441Y-5.0787
X4.7441Y-5.0787
X4.8441Y-5.0787
X4.9441Y-5.0787
X5.0441Y-5.0787
X5.1441Y-5.0787
X5.2441Y-5.0787
X5.2933Y-3.4863
X5.3441Y-5.0787
X5.3933Y-3.4863
X5.4441Y-5.0787
X5.4933Y-3.4863
X5.5441Y-5.0787
X5.5933Y-3.4863
X5.6441Y-5.0787
X5.6933Y-2.6863
X5.6933Y-3.4863
X5.7441Y-5.0787
X5.7933Y-2.6863
X5.7933Y-3.4863
X5.8441Y-5.0787
X5.8933Y-2.6863
X5.8933Y-3.4863
X5.9933Y-2.6863
X5.9933Y-3.4863
X6.0933Y-2.6863
X6.0933Y-3.4863
X6.1567Y-5.0787
X6.1933Y-2.6863
X6.1933Y-3.4863
X6.2567Y-5.0787
X6.2933Y-2.6863
X6.2933Y-3.4863
X6.3567Y-5.0787
X6.3933Y-2.6863
X6.3933Y-3.4863
X6.4567Y-5.0787
X6.4933Y-2.6863
X6.4933Y-3.4863
X6.5567Y-5.0787
X6.5933Y-2.6863
X6.5933Y-3.4863
X6.6567Y-5.0787
X6.6933Y-2.6863
X6.6933Y-3.4863
X6.7567Y-5.0787
X6.7933Y-2.6863
X6.7933Y-3.4863
X6.8567Y-5.0787
X6.9567Y-5.0787
X7.0567Y-5.0787
X7.1567Y-5.0787
X7.2567Y-5.0787
X7.3567Y-5.0787
X7.4567Y-5.0787
X7.5567Y-5.0787
X7.6567Y-5.0787
X7.7567Y-5.0787
X7.8567Y-5.0787
M30
