%TF.GenerationSoftware,KiCad,Pcbnew,8.0.8*%
%TF.CreationDate,2025-11-20T00:17:19-08:00*%
%TF.ProjectId,PosturePad,506f7374-7572-4655-9061-642e6b696361,rev?*%
%TF.SameCoordinates,Original*%
%TF.FileFunction,Soldermask,Bot*%
%TF.FilePolarity,Negative*%
%FSLAX46Y46*%
G04 Gerber Fmt 4.6, Leading zero omitted, Abs format (unit mm)*
G04 Created by KiCad (PCBNEW 8.0.8) date 2025-11-20 00:17:19*
%MOMM*%
%LPD*%
G01*
G04 APERTURE LIST*
%ADD10R,1.700000X1.700000*%
%ADD11O,1.700000X1.700000*%
%ADD12C,3.200000*%
%ADD13C,2.540000*%
%ADD14R,1.600000X2.600000*%
%ADD15O,1.600000X2.600000*%
G04 APERTURE END LIST*
D10*
%TO.C,J2*%
X148440000Y-129000000D03*
D11*
X145900000Y-129000000D03*
X143360000Y-129000000D03*
X140820000Y-129000000D03*
X138280000Y-129000000D03*
X135740000Y-129000000D03*
X133200000Y-129000000D03*
X130660000Y-129000000D03*
X128120000Y-129000000D03*
X125580000Y-129000000D03*
X123040000Y-129000000D03*
X120500000Y-129000000D03*
X117960000Y-129000000D03*
X115420000Y-129000000D03*
X112880000Y-129000000D03*
X110340000Y-129000000D03*
X107800000Y-129000000D03*
X105260000Y-129000000D03*
%TD*%
D12*
%TO.C,A1*%
X130640000Y-87282500D03*
D13*
X176360000Y-87282500D03*
D12*
X130640000Y-69502500D03*
D13*
X176360000Y-69502500D03*
D14*
X134450000Y-88252500D03*
D15*
X136990000Y-88252500D03*
X139530000Y-88252500D03*
X142070000Y-88252500D03*
X144610000Y-88252500D03*
X147150000Y-88252500D03*
X149690000Y-88252500D03*
X152230000Y-88252500D03*
X154770000Y-88252500D03*
X157310000Y-88252500D03*
X159850000Y-88252500D03*
X162390000Y-88252500D03*
X164930000Y-88252500D03*
X167470000Y-88252500D03*
X170010000Y-88252500D03*
X172550000Y-88252500D03*
X172550000Y-68532500D03*
X170010000Y-68532500D03*
X167470000Y-68532500D03*
X164930000Y-68532500D03*
X162390000Y-68532500D03*
X159850000Y-68532500D03*
X157310000Y-68532500D03*
X154770000Y-68532500D03*
X152230000Y-68532500D03*
X149690000Y-68532500D03*
X147150000Y-68532500D03*
X144610000Y-68532500D03*
%TD*%
D10*
%TO.C,J1*%
X199560000Y-129000000D03*
D11*
X197020000Y-129000000D03*
X194480000Y-129000000D03*
X191940000Y-129000000D03*
X189400000Y-129000000D03*
X186860000Y-129000000D03*
X184320000Y-129000000D03*
X181780000Y-129000000D03*
X179240000Y-129000000D03*
X176700000Y-129000000D03*
X174160000Y-129000000D03*
X171620000Y-129000000D03*
X169080000Y-129000000D03*
X166540000Y-129000000D03*
X164000000Y-129000000D03*
X161460000Y-129000000D03*
X158920000Y-129000000D03*
X156380000Y-129000000D03*
%TD*%
M02*
