<?xml version="1.0" encoding="UTF-8" standalone="no"?>
<!-- Created with Inkscape (http://www.inkscape.org/) -->

<svg
   width="210mm"
   height="297mm"
   viewBox="0 0 210 297"
   version="1.1"
   id="svg1"
   xml:space="preserve"
   xmlns="http://www.w3.org/2000/svg"
   xmlns:svg="http://www.w3.org/2000/svg"><defs
     id="defs1" /><g
     id="layer1"><path
       fill="#000000"
       fill-opacity="1"
       stroke="#000000"
       stroke-width="0.79375"
       stroke-dasharray="none"
       stroke-opacity="1"
       d="m 96.454695,168.05669 c -1.38733,-0.79353 -2.41947,-2.13323 -3.11203,-4.03937 -0.51178,-1.40857 -0.59428,-2.3484 -0.76565,-8.72242 -0.12594,-4.6839 -0.33849,-7.91815 -0.61727,-9.39271 -0.70463,-3.72705 -0.96088,-7.40471 -0.68498,-9.8309 0.5035,-4.42777 1.96382,-8.5848 3.93106,-11.19039 2.84845,-3.77274 7.369785,-3.7033 9.843205,0.15119 1.66147,2.58918 2.85955,8.10425 2.51847,11.59319 -0.0934,0.95496 -0.61169,3.22457 -1.15186,5.04358 -0.90245,3.03896 -0.98246,3.57562 -0.9862,6.61458 -0.002,1.81901 0.10213,5.09323 0.23191,7.27604 0.19974,3.35935 0.1663,4.31408 -0.21776,6.21771 -0.51015,2.52857 -1.219,4.31875 -2.08165,5.25713 -1.51249,1.64526 -4.933085,2.15155 -6.907245,1.02237 z"
       id="path1" /></g></svg>
