<?xml version="1.0" encoding="UTF-8" standalone="no"?>
<!-- Created with Inkscape (http://www.inkscape.org/) -->

<svg
   width="210mm"
   height="297mm"
   viewBox="0 0 210 297"
   version="1.1"
   id="svg1"
   xml:space="preserve"
   xmlns="http://www.w3.org/2000/svg"
   xmlns:svg="http://www.w3.org/2000/svg"><defs
     id="defs1" /><g
     id="layer1"><path
       fill="#000000"
       fill-opacity="1"
       stroke="#000000"
       stroke-width="0.79375"
       stroke-dasharray="none"
       stroke-opacity="1"
       d="m 104.45695,170.63432 c -1.54,-0.55675 -2.86079,-2.11188 -3.47068,-4.08648 -1.015136,-3.28665 -1.160946,-5.26229 -0.7852,-10.63926 0.42146,-6.03097 0.27165,-8.33662 -0.764276,-11.76286 -1.5012,-4.9651 -1.60801,-7.3384 -0.53936,-11.98423 0.88349,-3.84089 2.553856,-6.48823 4.645156,-7.36203 1.2569,-0.52516 3.37505,-0.45947 4.5396,0.14079 2.59597,1.33807 4.83301,5.29192 6.06195,10.71418 0.62945,2.77721 0.55683,7.71361 -0.17552,11.93088 -0.45956,2.64638 -0.6423,5.05648 -0.79244,10.45104 -0.17733,6.37127 -0.24963,7.15234 -0.79181,8.5545 -1.11229,2.87654 -3.10949,4.4122 -5.70178,4.38414 -0.72761,-0.008 -1.72914,-0.16118 -2.22564,-0.34067 z"
       id="path1" /></g></svg>
